Coordinates
version=1
nRows=14
nColumns=36
inDegrees=yes

Units are S.I. units (second, meters, Newtons, ...)
If the header above contains a line with 'inDegrees', this indicates whether rotational values are in degrees (yes) or radians (no).

endheader
time	pelvis_tilt	pelvis_list	pelvis_rotation	pelvis_tx	pelvis_ty	pelvis_tz	hip_flexion_r	hip_adduction_r	hip_rotation_r	knee_angle_r	knee_angle_r_beta	ankle_angle_r	subtalar_angle_r	mtp_angle_r	hip_flexion_l	hip_adduction_l	hip_rotation_l	knee_angle_l	knee_angle_l_beta	ankle_angle_l	subtalar_angle_l	mtp_angle_l	lumbar_extension	lumbar_bending	lumbar_rotation	arm_flex_r	arm_add_r	arm_rot_r	elbow_flex_r	pro_sup_r	arm_flex_l	arm_add_l	arm_rot_l	elbow_flex_l	pro_sup_l
      0.00000000	     10.08771883	     -2.39265496	     -6.02338417	      0.52314411	      0.91998278	      0.03910027	     30.99915967	     -1.37313702	      7.78419013	     10.84908532	      0.18935226	     -5.46661636	    -14.36388139	     -7.00522252	     -2.94210963	      2.99049345	     -5.38462736	     24.52056542	      0.42796460	      7.21731305	    -17.14901126	     -7.00522252	    -26.84102140	     -6.38192469	      1.42811312	     31.76112352	      0.92074183	     54.61242855	    125.74461932	     89.33993840	     31.08291162	     -7.90562445	     69.47016870	    124.68994643	     97.95800256
      0.01666670	      7.17143955	     -1.79457200	     -4.39287808	      0.52582257	      0.90494809	      0.04288336	     36.13402240	     -2.07145019	      3.68220161	     12.04778101	      0.21027345	      5.76426685	      0.39598976	     -7.12088169	      4.45852785	      2.60770386	     -7.01289853	     33.59710083	      0.58638003	      8.91655297	    -22.19872447	     -7.12088169	    -23.96796549	     -6.88085363	      2.80635466	     31.74603044	     -1.07800393	     61.21044660	    130.96716330	     98.35733113	     32.43782254	     -8.32579800	     68.70368075	    129.00956127	    108.67447940
      0.03333330	      6.54774049	     -2.06174736	     -4.79712782	      0.53471313	      0.89781178	      0.04294585	     37.26098030	     -1.57772459	      0.18653291	     12.67779390	      0.22126925	      8.66880276	      4.31612014	     -7.13872082	      8.55352930	      2.61597684	     -7.03883239	     41.18806970	      0.71886743	     10.48093131	    -24.99838547	     -7.13872082	    -22.00541885	     -6.00033077	      1.94950149	     31.16869646	      1.48226391	     60.12907721	    130.79480328	     99.49187694	     30.47927081	     -9.23751390	     66.48007132	    130.00091843	    109.65013851
      0.05000000	      6.14284257	     -1.16495164	     -3.57762660	      0.52745981	      0.88901596	      0.03880388	     38.55329173	     -3.26048980	     -1.57473378	     14.55969441	      0.25411461	      8.63265316	      4.90820727	     -7.25185354	     11.43049915	      4.56130965	     -5.24628668	     45.12162952	      0.78752100	     12.27185456	    -23.89030559	     -7.25185354	    -21.55728903	     -6.08291794	     -0.36594250	     32.18777832	      3.35614844	     60.46628948	    130.00813797	    103.53091133	     31.33652343	     -9.13707965	     64.93673995	    130.87133036	    111.30448597
      0.06666670	      6.20767372	      0.33235796	     -3.14960925	      0.52709882	      0.88846173	      0.03915525	     39.00980237	     -5.04222491	     -2.27615211	     15.36060749	      0.26809318	      5.92300914	      5.53747328	     -7.27121580	     12.35512540	      6.93460547	     -4.51796421	     46.50532905	      0.81167111	     12.89328760	    -23.24715718	     -7.27121580	    -21.87061391	     -7.37097812	     -1.03417895	     33.04041032	      3.97978595	     60.45988562	    129.35441253	    102.03652327	     32.60075169	     -8.81471325	     65.43014379	    131.40734900	    109.26825255
      0.08333330	      6.21591481	      1.63799279	     -3.07938002	      0.52663287	      0.87929720	      0.04054103	     39.73083343	     -6.38745324	     -1.63659899	     16.18767214	      0.28252818	      2.56562573	      5.26798640	     -7.30062064	     13.29903532	      8.69702144	     -4.29053655	     47.75724432	      0.83352116	     12.62403959	    -22.68446365	     -7.30062064	    -22.38331618	     -8.52312376	     -1.27659985	     34.59164009	      4.36868030	     60.80633063	    128.70977543	    101.28088246	     34.73401422	     -8.84899539	     67.19148533	    131.70517151	    108.45249727
      0.10000000	      5.52055301	      2.91080928	     -3.02135816	      0.52604236	      0.87493348	      0.04131283	     41.59403056	     -7.59975889	     -0.70793548	     17.33306366	      0.30251903	     -0.02980438	      5.05186984	     -7.38521576	     15.21455398	     10.14647258	     -4.40322133	     49.34250586	      0.86118919	     12.34434027	    -22.35391081	     -7.38521576	    -22.06765572	     -9.73896008	     -1.16806496	     34.68851273	      4.48540773	     60.47097480	    128.43750910	    102.62604551	     35.40791352	     -9.17217828	     68.47614805	    131.60136002	    108.14524013
      0.11666670	      5.50112155	      3.61452671	     -2.99439115	      0.53335819	      0.87507314	      0.04038009	     41.52145689	     -8.34882458	     -0.52989812	     16.91751455	      0.29526633	     -1.66669838	      5.64927375	     -7.38621295	     15.45981662	     10.95781241	     -4.39768967	     50.06476530	      0.87379499	     12.15762628	    -22.29038307	     -7.38621295	    -22.30161556	    -10.16894600	     -0.95667079	     34.31405894	      4.39599896	     60.50052155	    128.12437615	    102.65555636	     35.20033183	     -9.52185680	     68.71825598	    131.55894511	    108.03807998
      0.13333330	      4.84694010	      4.51118448	     -2.69673798	      0.52616859	      0.86717532	      0.03675097	     42.70909160	     -9.36341092	     -0.06201773	     17.53428229	      0.30603096	     -2.92248344	      6.12029409	     -7.40251754	     17.58514112	     11.92471614	     -4.46246381	     51.76229064	      0.90342240	     11.22223377	    -23.17508056	     -7.40251754	    -21.91259271	    -10.58556857	     -0.86017787	     34.52694253	      3.96284499	     61.05667416	    127.55321590	     99.90349317	     36.00229823	     -9.29966718	     69.24979064	    131.31605488	    104.32363661
      0.15000000	      4.70947624	      4.98852029	     -2.54229950	      0.52613434	      0.86614547	      0.03737562	     42.97500207	     -9.97726124	      0.11896138	     17.67283709	      0.30844920	     -3.78009832	      6.76585125	     -7.43913933	     18.76561435	     12.48454941	     -4.51590101	     52.92907578	      0.92378664	     10.68561479	    -23.91303696	     -7.43913933	    -22.07582980	    -10.68434609	     -0.63043228	     34.31326533	      3.56736998	     61.21478038	    127.39994552	    102.40788762	     36.37133387	     -9.21915009	     68.98447627	    130.90439609	    104.43085079
      0.16666670	      4.82722500	      5.53555696	     -2.17207642	      0.51902704	      0.86500920	      0.03313586	     43.07721556	    -10.88799159	      0.08313546	     18.06116712	      0.31522683	     -4.43066040	      7.47944443	     -7.44028755	     19.67165412	     13.28342996	     -4.43242379	     53.86532918	      0.94012735	     10.95845638	    -24.28498237	     -7.44028755	    -22.68840012	    -10.69618532	     -0.80458491	     34.61769743	      3.24063160	     62.03982650	    127.40286554	    102.46852357	     37.46215776	     -8.59552215	     68.02720899	    130.05975468	    104.26089739
      0.18333330	      4.54830533	      5.61084713	     -1.99839606	      0.52587942	      0.85997551	      0.03714891	     43.06197008	    -11.14375004	     -0.24102558	     17.70811071	      0.30906484	     -4.88804446	      7.90641347	     -7.44412209	     20.57068133	     13.28327151	     -4.63843195	     54.68002577	      0.95434648	     11.09286168	    -24.76187998	     -7.44412209	    -22.48777998	    -10.47802394	     -0.85103738	     34.28773891	      3.37572658	     62.79408495	    127.59253092	    100.00874454	     38.02760843	     -8.25916320	     67.01977783	    129.30597509	    101.59960625
      0.20000000	      4.39173970	      5.82428782	     -1.89751032	      0.52506310	      0.85721997	      0.03740731	     42.85599836	    -11.36622293	     -0.11970603	     17.37619410	      0.30327180	     -5.01013155	      7.93026159	     -7.47156638	     20.99354867	     13.32604286	     -4.95641230	     55.04570504	      0.96072879	     11.51255795	    -25.10241167	     -7.47156638	    -22.39843132	    -10.54681636	     -0.72747658	     34.14451494	      3.56483090	     62.87210599	    127.03269981	    101.55414363	     38.81505506	     -7.80527412	     66.30894744	    128.16138084	    102.29370495
      0.21666670	      3.88518665	      5.87556641	     -1.83563148	      0.52678545	      0.85402017	      0.03155184	     42.91158030	    -11.48531987	     -0.20498724	     17.10286054	      0.29850123	     -5.21731660	      8.02251045	     -7.47216997	     21.72639086	     13.30412937	     -5.22034220	     55.56011882	      0.96970701	     11.66718585	    -25.37669904	     -7.47216997	    -21.94176771	    -10.26470124	     -0.67110247	     34.55229693	      3.41095257	     63.10677522	    126.81003643	    101.62963944	     39.23761707	     -7.21600808	     66.04020321	    127.48207460	    102.28382580
